<svg width="568" height="167" viewBox="0 0 568 167" fill="none" xmlns="http://www.w3.org/2000/svg">
<path fill-rule="evenodd" clip-rule="evenodd" d="M187.022 98.0157C187.81 98.4476 188.652 98.6832 189.525 98.6943C193.638 92.8404 198.803 86.5278 203.589 82.0538C205.791 79.9559 208.783 78.5736 210.861 78.2073C215.643 77.364 218.525 81.5571 220.427 88.6956C222.975 98.2844 225.593 109.847 228.771 127.869C232.03 146.354 238.441 158.181 249.791 157.196C250.27 157.155 250.753 157.1 251.251 157.012C258.112 155.802 260.817 151.695 263.612 142.016C266.001 133.694 269.85 121.481 276.933 98.446C283.074 78.5662 290.619 60.5758 297.587 47.8131C299.53 44.2732 301.122 41.7961 302.758 40.2579C303.85 39.2268 304.964 38.6111 306.213 38.3909C309.741 37.7687 312.842 40.292 314.926 47.074C315.421 48.6855 315.858 50.537 316.23 52.6436C318.75 66.936 317.434 91.0909 314.108 126.921C311.631 152.987 317.535 169.458 332.504 166.819C332.528 166.815 332.552 166.81 332.575 166.806C332.607 166.801 332.638 166.795 332.672 166.789L332.682 166.785C336.065 166.148 338.658 164.424 340.99 161.817C343.285 159.248 345.154 154.244 346.569 147.711C348.165 140.351 359.197 103.106 383.252 80.6783C382.39 73.9164 377.412 67.8829 369.592 68.5125C362.473 69.0834 358.022 72.9113 352.379 78.3398C352.482 76.117 352.573 74.0398 352.655 72.1401C352.751 69.8968 352.83 67.9625 352.89 66.4019C352.983 64.0781 353.039 62.5832 353.06 62.1683C353.23 57.932 353.182 53.9453 352.945 50.1946C350.738 15.281 331.89 1.18432 313.306 4.46124C310.2 5.00893 307.188 5.92144 304.268 7.23688C284.708 16.0391 269.137 43.0024 255.338 101.185C254.655 95.2411 253.723 89.7412 252.57 84.6888C245.569 53.972 231.673 46.8358 214.356 49.8892C201.259 52.1984 190.2 61.195 185.462 70.7892C181.946 77.6036 181.244 84.5628 182.158 89.7414C182.866 93.7605 184.707 96.7441 187.022 98.0157Z" fill="#EA5252"/>
</svg>
